<?xml version="1.0" standalone="no"?>
<!DOCTYPE svg PUBLIC "-//W3C//DTD SVG 20010904//EN"
 "http://www.w3.org/TR/2001/REC-SVG-20010904/DTD/svg10.dtd">
<svg version="1.0" xmlns="http://www.w3.org/2000/svg"
 width="5000.000000pt" height="5000.000000pt" viewBox="0 0 5000.000000 5000.000000"
 preserveAspectRatio="xMidYMid meet">
<metadata>
Created by potrace 1.16, written by Peter Selinger 2001-2019
</metadata>
<g transform="translate(0.000000,5000.000000) scale(0.100000,-0.100000)"
fill="#000000" stroke="none">
<path d="M0 25000 l0 -25000 25000 0 25000 0 0 25000 0 25000 -25000 0 -25000
0 0 -25000z m45873 21893 c291 -366 675 -934 959 -1418 412 -700 814 -1527
1090 -2240 351 -907 596 -1742 757 -2590 147 -769 204 -1368 205 -2125 1 -535
-22 -868 -94 -1355 -158 -1073 -539 -2113 -1191 -3255 -625 -1095 -1500 -2252
-2539 -3355 -612 -649 -1385 -1381 -1925 -1822 -37 -31 -38 -33 -15 -33 103 0
420 -24 535 -41 1152 -168 2097 -851 2716 -1962 67 -120 144 -279 192 -398
l15 -36 223 -6 c241 -5 353 -20 582 -77 676 -169 1340 -618 1900 -1285 174
-207 376 -491 360 -505 -18 -16 -1493 -472 -2928 -905 -467 -140 -911 -277
-985 -302 -425 -146 -851 -384 -1326 -739 -613 -457 -1171 -975 -2383 -2209
-1021 -1040 -1623 -1635 -2141 -2116 -1304 -1213 -2495 -2109 -3755 -2827
-1201 -684 -2627 -1211 -4200 -1551 -1333 -288 -2755 -451 -4290 -491 -916
-24 -1769 2 -2710 81 l-140 12 -210 -98 c-1476 -686 -3540 -1594 -4925 -2167
-2444 -1011 -4007 -1557 -4967 -1734 -133 -25 -171 -28 -373 -28 -209 -1 -234
1 -354 27 -527 113 -869 346 -1046 713 -79 164 -113 326 -114 543 l-1 144
-103 -7 c-401 -24 -1103 -16 -1727 19 -1384 80 -2924 303 -4605 669 -470 102
-1219 283 -1407 339 l-42 13 617 183 c3496 1040 6802 2164 9142 3108 1198 483
1917 796 2900 1261 177 83 781 387 1025 515 564 295 1194 667 1595 941 383
261 735 547 873 709 l49 57 -44 53 c-630 761 -1386 1423 -2053 1798 -228 127
-413 211 -645 291 -154 53 -267 81 -505 123 -1048 188 -1227 224 -1513 306
-823 235 -1239 579 -1393 1154 -33 120 -37 339 -10 462 87 397 404 742 969
1056 143 79 368 184 512 238 86 32 75 34 -76 15 -116 -16 -387 -37 -729 -58
-148 -9 -503 -13 -1205 -12 -857 0 -1019 3 -1170 17 -523 51 -892 146 -1250
320 -562 274 -881 712 -809 1113 17 95 87 229 160 303 90 91 162 135 546 323
369 181 657 329 1182 606 l334 177 -419 6 c-409 6 -556 13 -954 44 -1702 134
-3340 515 -4710 1097 -178 75 -522 244 -660 323 -606 348 -1107 830 -1335
1284 -40 80 -93 223 -116 310 -28 109 -36 294 -16 398 52 273 255 445 569 484
118 14 193 9 603 -46 675 -90 1629 -200 2655 -305 322 -32 608 -62 635 -65 28
-3 -6 6 -73 19 -703 138 -1519 430 -2412 863 -1935 939 -3714 2258 -4805 3563
-478 572 -784 1125 -871 1575 -25 128 -25 357 1 445 42 148 136 238 302 290
88 28 336 38 491 20 501 -57 1244 -302 2155 -709 430 -192 1160 -552 1444
-712 40 -23 73 -39 73 -36 0 2 -55 51 -122 109 -271 232 -797 711 -1288 1172
-337 317 -1390 1371 -1661 1661 -1326 1426 -2131 2519 -2501 3400 -73 173
-112 294 -169 520 -118 468 -140 797 -67 992 24 66 91 141 154 173 45 23 59
25 184 24 117 0 147 -4 224 -28 285 -87 614 -259 1071 -560 414 -273 682 -466
1411 -1017 694 -523 1117 -811 1734 -1181 495 -297 826 -478 1350 -737 814
-404 1610 -733 2500 -1032 1497 -505 3085 -854 4830 -1063 760 -92 1288 -133
2310 -181 1604 -75 1938 -96 2555 -156 1140 -110 1990 -328 2695 -691 625
-322 1129 -692 1800 -1323 390 -367 913 -914 1390 -1455 672 -762 1123 -1244
1740 -1860 1758 -1759 3637 -3291 5516 -4498 348 -223 801 -492 829 -492 16 0
385 229 595 370 1247 835 2302 1739 3240 2775 1262 1395 2173 2906 2534 4205
82 294 125 522 166 870 59 516 160 881 336 1219 179 344 415 590 707 737 124
63 338 124 433 124 19 0 34 4 34 9 0 5 -27 90 -61 188 -135 399 -226 784 -276
1168 -13 105 -18 206 -17 400 0 286 13 392 73 580 88 279 302 545 533 661 227
114 533 107 782 -18 32 -16 60 -28 61 -26 2 2 -19 44 -47 93 -118 209 -238
487 -304 703 -148 487 -127 884 63 1170 123 185 289 271 526 272 172 0 343
-44 545 -140 56 -27 102 -47 102 -45 0 2 -31 61 -70 132 -129 237 -224 484
-271 703 -31 142 -33 378 -5 490 75 297 297 473 576 457 285 -17 653 -218
1044 -572 54 -49 97 -85 95 -79 -2 5 -37 73 -77 152 -128 250 -204 482 -232
705 -16 124 -8 359 15 441 46 166 111 284 210 382 164 163 375 195 660 100
182 -61 453 -224 664 -401 57 -47 105 -85 107 -83 2 2 -3 25 -11 51 -54 179
-71 523 -36 729 62 360 257 706 536 949 50 43 91 79 92 79 2 0 45 -53 96 -117z"/>
</g>
</svg>
